# xmcd
#
# Track frame offsets: 
#        150
#        14939
#        27620
#        44227
#        58898
#        73532
#        88420
#        102171
#        116718
#        130954
#        145426
#        160104
#        175917
#        191202
#        208656
#
# Disc length: 3478 seconds
#
# Revision: 3
# Processed by: cddbd v1.5.2PL0 Copyright (c) Steve Scherf et al.
# Submitted via: ExactAudioCopy v1.1
#
DISCID=f60d940f
DTITLE=Annett Louisan - das optimale leben
DYEAR=2007
DGENRE=Chanson
TTITLE0=das alles wäre nie passiert
TTITLE1=kleine zwischenfälle
TTITLE2=was haben wir gesucht
TTITLE3=er
TTITLE4=die wahrheit
TTITLE5=wenn man sich nicht mehr liebt
TTITLE6=ich ...be dich
TTITLE7=die sein
TTITLE8=mein innerer schweinehund (zusammen mit die prinzen)
TTITLE9=gendefekt
TTITLE10=unbekümmert
TTITLE11=rosenkrieg
TTITLE12=dings
TTITLE13=ende dezember
TTITLE14=der kleine unterschied
EXTD=YEAR: 07
EXTT0=
EXTT1=
EXTT2=
EXTT3=
EXTT4=
EXTT5=
EXTT6=
EXTT7=
EXTT8=
EXTT9=
EXTT10=
EXTT11=
EXTT12=
EXTT13=
EXTT14=
PLAYORDER=
